<?xml version="1.0" encoding="UTF-8" standalone="no"?>
<!-- Created with Inkscape (http://www.inkscape.org/) -->

<svg
   xmlns:dc="http://purl.org/dc/elements/1.1/"
   xmlns:cc="http://creativecommons.org/ns#"
   xmlns:rdf="http://www.w3.org/1999/02/22-rdf-syntax-ns#"
   xmlns:svg="http://www.w3.org/2000/svg"
   xmlns="http://www.w3.org/2000/svg"
   xmlns:sodipodi="http://sodipodi.sourceforge.net/DTD/sodipodi-0.dtd"
   xmlns:inkscape="http://www.inkscape.org/namespaces/inkscape"
   width="428.32233mm"
   height="171.52469mm"
   viewBox="0 0 428.32233 171.52469"
   version="1.1"
   id="svg8"
   inkscape:version="0.92.2 2405546, 2018-03-11"
   sodipodi:docname="cherkashin.svg">
  <defs
     id="defs2" />
  <sodipodi:namedview
     id="base"
     pagecolor="#ffffff"
     bordercolor="#666666"
     borderopacity="1.0"
     inkscape:pageopacity="0.0"
     inkscape:pageshadow="2"
     inkscape:zoom="0.47523197"
     inkscape:cx="904.66746"
     inkscape:cy="656.37309"
     inkscape:document-units="mm"
     inkscape:current-layer="layer1"
     showgrid="false"
     fit-margin-top="0"
     fit-margin-left="0"
     fit-margin-right="0"
     fit-margin-bottom="0"
     inkscape:window-width="1918"
     inkscape:window-height="1058"
     inkscape:window-x="1280"
     inkscape:window-y="20"
     inkscape:window-maximized="1" />
  <metadata
     id="metadata5">
    <rdf:RDF>
      <cc:Work
         rdf:about="">
        <dc:format>image/svg+xml</dc:format>
        <dc:type
           rdf:resource="http://purl.org/dc/dcmitype/StillImage" />
        <dc:title></dc:title>
      </cc:Work>
    </rdf:RDF>
  </metadata>
  <g
     inkscape:label="Layer 1"
     inkscape:groupmode="layer"
     id="layer1"
     transform="translate(90.557403,-124.83491)">
    <g
       id="g894">
      <path
         style="opacity:0.75800003;fill:none;stroke:#3a4baa;stroke-width:5;stroke-linecap:round;stroke-linejoin:round;stroke-miterlimit:4;stroke-dasharray:none;stroke-opacity:1"
         d="m -72.817454,153.9595 c 3.496321,-6.69633 6.589835,-13.86955 11.93911,-19.27182 1.969078,-5.12804 8.618348,-12.16081 10.333149,-3.30231 3.776756,5.91731 9.990923,-0.46614 14.349945,-0.84758 -5.543411,10.92548 -12.022896,21.5783 -14.831336,33.64648 -2.570141,8.29118 -5.057511,16.81996 -4.458561,25.60327 -0.571706,8.14233 7.83047,13.20326 15.150221,10.91932 9.217149,-3.72422 18.120496,-8.80086 24.394035,-16.68643 5.502585,-6.78931 12.1630784,-13.30448 14.4574199,-21.99142 -0.4161327,-9.76735 -11.0208719,0.18174 -12.4632639,4.95041 -3.357561,5.34472 -5.755456,11.38092 -5.264891,17.8157 -2.59563,7.75395 7.53366,10.76931 12.1788492,5.74851 10.7412632,-4.7222 20.0438798,-12.16168 28.0011258,-20.71578 6.768317,-5.52352 2.937733,9.22636 2.496773,12.75034 -1.094956,7.55398 -3.452346,14.82227 -5.747584,22.10538 -0.519093,5.84565 -8.3193759,12.47422 -11.3965673,4.37392 -1.0767115,-7.58762 3.0268446,-15.05563 8.7504533,-19.78085 4.669777,-6.24386 12.51467,-13.72101 19.196651,-17.55893 38.980944,-19.76787 29.5353,30.3523 -18.480091,9.87233 -1.341923,-0.22122 -4.20318,2.40505 -5.507031,2.0171"
         id="path20"
         inkscape:connector-curvature="0"
         sodipodi:nodetypes="cccccccccccccccccccc" />
      <path
         style="opacity:0.75800003;fill:none;stroke:#3a4baa;stroke-width:5;stroke-linecap:round;stroke-linejoin:round;stroke-miterlimit:4;stroke-dasharray:none;stroke-opacity:1"
         d="m 67.27976,159.41667 c 0.136372,5.47349 0.175038,11.04706 -1.282217,16.37088 -0.450504,4.227 -1.454434,8.48247 -0.816342,12.74531 2.818582,-3.67913 6.23329,-6.88722 8.776236,-10.78047 5.019143,-4.66585 8.250858,-10.79396 11.990727,-16.44527 1.041509,-4.12872 5.405744,-6.55602 6.022286,-10.84185"
         id="path22"
         inkscape:connector-curvature="0"
         sodipodi:nodetypes="cccccc" />
      <path
         style="opacity:0.75800003;fill:none;stroke:#3a4baa;stroke-width:5;stroke-linecap:round;stroke-linejoin:round;stroke-miterlimit:4;stroke-dasharray:none;stroke-opacity:1"
         d="m 63.499999,184.36309 c 8.899885,7.5187 21.534472,-0.69309 27.214285,-9.07142 5.905554,-5.72773 9.901276,11.66651 19.654766,3.0238 12.4395,-2.93185 18.71002,-23.67537 1.5119,-21.92262 -11.921959,-0.82788 -23.573456,26.63916 -4.53571,18.14286 11.09698,-2.45464 1.41228,-2.05634 11.33928,-4.53571 8.6756,-7.40712 9.47742,-4.39851 5.29167,4.53571 -2.28175,19.59476 18.62545,-3.82976 23.43452,-9.07143 4.59296,-5.69686 8.88956,-12.97572 2.37186,-1.68082 -5.79367,6.02554 -6.48151,29.38879 8.96743,16.04392 9.85974,-6.42153 20.57172,-14.96685 24.19047,-26.45833 -2.32656,3.77527 -13.10192,26.10114 0.75596,23.43452 7.33621,-4.40651 17.032,-14.41821 19.65476,-19.65476 -4.55369,6.64964 -9.94815,27.77426 4.53571,15.875 7.38243,-3.40377 21.0204,-24.13259 21.16667,-22.67857 -2.71556,7.1265 -16.15499,28.38146 -2.4616,28.08458 10.0824,-3.39022 18.55871,-13.14359 21.36041,-22.03696 3.8287,-10.33762 -12.8762,24.2644 0,17.3869 7.95038,-5.26518 19.21146,-21.96411 18.8988,-26.45833 -1.79089,6.21464 -12.38274,26.40605 -5.29166,26.45833 6.41202,-8.22284 19.68029,-22.72067 24.19048,-26.45833 -10.0487,13.83298 4.54326,25.1452 16.47261,18.06111 82.64303,-21.89241 -277.335399,87.9793 -352.115467,130.10555"
         id="path24"
         inkscape:connector-curvature="0"
         sodipodi:nodetypes="ccccccccccccccccccccccc" />
    </g>
  </g>
</svg>
