<?xml version="1.0" encoding="UTF-8" standalone="no"?>
<!-- Created with Inkscape (http://www.inkscape.org/) -->

<svg
   xmlns:dc="http://purl.org/dc/elements/1.1/"
   xmlns:cc="http://creativecommons.org/ns#"
   xmlns:rdf="http://www.w3.org/1999/02/22-rdf-syntax-ns#"
   xmlns:svg="http://www.w3.org/2000/svg"
   xmlns="http://www.w3.org/2000/svg"
   xmlns:sodipodi="http://sodipodi.sourceforge.net/DTD/sodipodi-0.dtd"
   xmlns:inkscape="http://www.inkscape.org/namespaces/inkscape"
   version="1.1"
   id="svg10"
   width="150.2011"
   height="73.596375"
   viewBox="0 0 150.2011 73.596375"
   sodipodi:docname="dorbaik.svg"
   inkscape:version="0.92.2 2405546, 2018-03-11">
  <metadata
     id="metadata16">
    <rdf:RDF>
      <cc:Work
         rdf:about="">
        <dc:format>image/svg+xml</dc:format>
        <dc:type
           rdf:resource="http://purl.org/dc/dcmitype/StillImage" />
        <dc:title></dc:title>
      </cc:Work>
    </rdf:RDF>
  </metadata>
  <defs
     id="defs14" />
  <sodipodi:namedview
     pagecolor="#ffffff"
     bordercolor="#666666"
     borderopacity="1"
     objecttolerance="10"
     gridtolerance="10"
     guidetolerance="10"
     inkscape:pageopacity="0"
     inkscape:pageshadow="2"
     inkscape:window-width="1918"
     inkscape:window-height="1058"
     id="namedview12"
     showgrid="false"
     inkscape:zoom="5.4230769"
     inkscape:cx="65.299466"
     inkscape:cy="46.773024"
     inkscape:window-x="1280"
     inkscape:window-y="20"
     inkscape:window-maximized="1"
     inkscape:current-layer="svg10"
     fit-margin-top="0"
     fit-margin-left="0"
     fit-margin-right="0"
     fit-margin-bottom="0" />
  <g
     id="g48564"
     transform="translate(-0.70173875,-0.91213278)">
    <path
       sodipodi:nodetypes="csssssssc"
       inkscape:connector-curvature="0"
       id="path47712"
       d="M 30.641294,28.06121 C 25.455361,20.519681 22.14978,16.00138 18.498069,12.909999 8.6273706,4.553888 3.5593304,9.1199491 2.2684405,16.144966 c -0.9136971,4.972335 -0.040155,9.520995 1.643214,14.263237 0.2643679,0.744755 1.9614488,5.179068 5.2688497,9.735651 2.5786188,3.552545 5.9191498,7.468655 11.7364768,7.883449 6.20299,0.442294 12.428518,-2.52274 19.014944,-10.152096 5.645591,-6.539544 18.358187,-32.2653095 21.891801,-33.2613576 2.211291,-0.6233143 2.746588,0.9906121 4.157685,2.825012"
       style="fill:none;stroke:#002385;stroke-width:2.4000001;stroke-linecap:round;stroke-linejoin:miter;stroke-miterlimit:4;stroke-dasharray:none;stroke-opacity:1;opacity:0.77" />
    <path
       sodipodi:nodetypes="cszzzzzzzzzzzzzzzzzzzzzzzzzzzzszzzzzzzzzzzzzzzzzzzszzzzzzzzzzzzzzzzzzzzzzzzzzzzzzzzzzzzzzzc"
       inkscape:connector-curvature="0"
       id="path48519"
       d="m 60.761034,14.109642 c 0,0 4.159439,-5.4521142 4.042043,-3.520488 -0.05437,0.89459 -14.132919,19.619606 -16.428949,25.034589 -2.29603,5.414983 -2.060844,4.679432 -1.173497,5.215539 0.887347,0.536107 3.175423,-4.456937 3.4362,-4.978491 0.260777,-0.521554 2.293732,-8.650131 1.257786,-11.711235 -1.035946,-3.061104 -2.670413,-4.703362 -4.954763,-5.215539 -2.28435,-0.512177 -4.439766,0.999837 -6.389035,2.477381 -1.949269,1.477544 -3.882115,3.894875 -4.693986,6.258647 -0.811871,2.363772 -1.622441,5.365832 -0.130388,7.171367 1.492053,1.805535 3.839396,1.372458 6.780201,1.173496 2.940805,-0.198962 5.824859,-1.631256 10.30069,-3.259712 4.475831,-1.628456 11.876098,-4.071088 15.322566,-6.042612 3.446468,-1.971524 5.454624,-3.015019 5.561963,-4.572864 0.107339,-1.557845 -0.742812,-2.273991 -1.978199,-2.162596 -1.235387,0.111395 -1.254786,2.017527 -1.793801,3.4823 -0.539015,1.464773 -1.074745,4.601786 -1.074745,5.12334 0,0.521554 1.654682,0.650051 3.329539,-0.623018 1.674857,-1.27307 7.647193,-4.860252 9.448532,-7.461068 1.801339,-2.600816 1.453039,-4.206891 0.782331,-5.867481 -0.670708,-1.66059 -1.370392,-2.799914 -3.781266,-2.998936 -2.410874,-0.199022 -5.528036,2.525573 -8.475251,4.693986 -2.947215,2.168413 -6.475392,5.74291 -8.866417,8.475251 -2.391025,2.732341 -4.896438,5.018365 -5.606705,7.692921 -0.710267,2.674556 -0.686208,5.467136 0.782331,7.040978 1.468539,1.573842 2.653057,1.447986 5.737093,1.043108 3.084036,-0.404878 8.148024,-3.870729 11.604575,-5.476316 3.456551,-1.605587 6.575156,-2.186339 9.127194,-4.172432 2.552038,-1.986093 4.337771,-4.857776 5.867482,-7.301755 1.529711,-2.443979 3.023788,-4.995267 3.3901,-6.802573 0.366312,-1.807306 0.635734,-3.956225 -0.130388,-3.498117 -0.961721,0.575068 -5.175902,7.501101 -7.492705,10.968451 -2.316803,3.46735 -4.991561,7.003665 -6.458863,9.763318 -1.467302,2.759653 -3.195296,4.995483 -2.998935,6.389035 0.196361,1.393552 -0.60371,0.8749 0.912719,1.043108 1.516429,0.168208 14.588008,-13.824177 14.994676,-14.733898 0.406668,-0.909721 0.510425,-1.72523 0.130389,0.651942 -0.380036,2.377172 -5.400309,8.193083 -5.950415,11.073755 -0.550106,2.880672 -0.587643,2.915099 0.705951,3.596869 1.293594,0.68177 2.050667,-0.391031 3.419025,-1.110222 1.368358,-0.719191 2.539614,-0.966091 3.781266,-2.086215 1.241652,-1.120124 3.3901,-5.085151 3.259712,-5.997871 -0.130388,-0.91272 -0.13617,-1.380397 -1.043108,-1.825438 -0.906938,-0.445041 -1.549434,-0.03824 -2.60777,0.912719 -1.058336,0.950964 -1.925341,3.52261 -2.477381,5.215539 -0.55204,1.692929 -2.330687,3.498881 -0.912719,4.824374 1.417968,1.325493 4.073736,-0.633623 6.519424,-1.69505 2.445688,-1.061427 5.849274,-3.426301 7.823314,-4.954762 1.97404,-1.528461 2.56631,-1.537891 4.17243,-3.911655 1.60612,-2.373764 2.73616,-7.316609 4.91002,-10.41526 2.17386,-3.098651 6.18337,-8.669153 7.30175,-9.57892 0.41705,-0.339259 1.39951,-1.319726 2.26135,-0.08565 0.86184,1.234079 -2.08621,5.867482 -2.2166,6.389036 -0.13039,0.521554 -3.86266,5.23743 -7.17137,7.562532 -3.30871,2.325102 -9.11023,4.074878 -11.86535,5.345928 -2.75512,1.27105 -3.255115,2.20839 -4.69399,2.216604 -1.438875,0.0082 -2.613194,-0.261215 -3.129324,-1.434273 -0.51613,-1.173058 0.217829,-3.223189 1.303885,-4.042043 1.086056,-0.818854 2.591189,-0.955324 3.911655,-0.130388 1.320466,0.824936 1.726394,3.329287 2.216604,4.954762 0.49021,1.625475 0.66365,2.620447 0.78233,4.693985 0.11868,2.073538 0.57202,3.945608 -0.39116,7.692921 -0.96318,3.747313 -4.083011,9.650905 -6.780206,13.951568 -2.697195,4.300663 -6.750711,9.436184 -9.257582,11.734963 -2.506871,2.298779 -2.826716,2.947703 -4.563597,2.998936 -1.736881,0.05123 -1.515033,-0.781808 -2.60777,-2.998936 -1.092737,-2.217128 -1.447884,-5.849043 -0.391165,-9.257582 1.056719,-3.408539 3.339328,-7.555904 5.215539,-10.30069 1.876211,-2.744786 3.637934,-4.687011 5.606705,-6.258648 1.968771,-1.571637 2.800412,-1.323241 5.867482,-3.259712 3.06707,-1.936471 10.412384,-4.48332 12.256514,-8.736028 1.84413,-4.252708 -0.95746,-10.498192 -1.69505,-12.647683 -0.73759,-2.149491 -2.68018,-5.811878 -5.476313,-8.344863 C 96.429507,8.9688882 92.441933,7.2327818 88.012227,5.6343911 83.582521,4.0360004 78.086972,3.1985658 72.756774,2.635456 67.426576,2.0723462 61.252298,1.872607 55.93666,2.5050675 50.621022,3.137528 41.724316,5.7647797 41.072373,6.4167221 40.42043,7.0686645 34.945218,8.508357 31.162847,11.501873 c -3.782371,2.993516 -9.527087,8.607809 -11.213409,13.299625 -1.686322,4.691816 -1.276566,8.575898 0.391165,12.256518 1.667731,3.68062 4.597964,5.869211 8.084087,7.823309 3.486123,1.954098 7.542955,2.058855 12.126128,2.868547 4.583173,0.809692 14.733899,0.521553 15.255453,0.521553 0.521554,0 10.713517,-0.735978 15.777007,-1.69505 5.06349,-0.959072 9.416493,-1.403593 14.60351,-2.998935 5.187017,-1.595342 13.06628,-4.579554 16.298562,-6.780201 3.23228,-2.200647 6.16338,-10.358557 4.04204,-4.172432 -2.12134,6.186125 -7.314573,11.244076 -5.73709,13.430014 1.57748,2.185938 1.04311,0.391166 1.56466,-0.130388 0.52155,-0.521554 6.12729,-7.187822 8.86642,-7.301756 2.73913,-0.113934 3.3901,2.346993 3.3901,2.346993"
       style="fill:none;stroke:#002385;stroke-width:2.4000001;stroke-linecap:round;stroke-linejoin:miter;stroke-miterlimit:4;stroke-dasharray:none;stroke-opacity:1;opacity:0.77" />
    <path
       sodipodi:nodetypes="ccc"
       inkscape:connector-curvature="0"
       id="path48521"
       d="m 122.82595,33.407139 c 0.32209,-4.935726 5.37459,-7.331946 9.4506,-9.059121 5.90048,-2.298372 11.54556,-2.610246 17.40943,-3.588563"
       style="fill:none;stroke:#002385;stroke-width:2.4000001;stroke-linecap:round;stroke-linejoin:miter;stroke-miterlimit:4;stroke-dasharray:none;stroke-opacity:1;opacity:0.77" />
  </g>
</svg>
